<svg width="89" height="37" viewBox="0 0 89 37" fill="none" xmlns="http://www.w3.org/2000/svg">
<g filter="url(#filter0_d_18759_122)">
<rect x="4.35297" y="2" width="80" height="29" rx="2" fill="#99E2D0"/>
</g>
<path d="M25.2596 12.0469V22H23.5438L19.08 14.8701V22H17.3641V12.0469H19.08L23.5575 19.1904V12.0469H25.2596ZM26.8251 18.3838V18.2266C26.8251 17.6934 26.9025 17.1989 27.0575 16.7432C27.2124 16.2829 27.4357 15.8841 27.7274 15.5469C28.0236 15.2051 28.3837 14.9408 28.8075 14.7539C29.2359 14.5625 29.719 14.4668 30.2567 14.4668C30.799 14.4668 31.2821 14.5625 31.7059 14.7539C32.1343 14.9408 32.4966 15.2051 32.7928 15.5469C33.0891 15.8841 33.3147 16.2829 33.4696 16.7432C33.6246 17.1989 33.702 17.6934 33.702 18.2266V18.3838C33.702 18.917 33.6246 19.4115 33.4696 19.8672C33.3147 20.3229 33.0891 20.7217 32.7928 21.0635C32.4966 21.4007 32.1366 21.665 31.7128 21.8564C31.2889 22.0433 30.8081 22.1367 30.2704 22.1367C29.7281 22.1367 29.2427 22.0433 28.8143 21.8564C28.3905 21.665 28.0305 21.4007 27.7343 21.0635C27.438 20.7217 27.2124 20.3229 27.0575 19.8672C26.9025 19.4115 26.8251 18.917 26.8251 18.3838ZM28.4725 18.2266V18.3838C28.4725 18.7165 28.5067 19.0309 28.5751 19.3271C28.6434 19.6234 28.7505 19.8831 28.8964 20.1064C29.0422 20.3298 29.229 20.5052 29.4569 20.6328C29.6848 20.7604 29.9559 20.8242 30.2704 20.8242C30.5757 20.8242 30.84 20.7604 31.0634 20.6328C31.2912 20.5052 31.4781 20.3298 31.6239 20.1064C31.7697 19.8831 31.8768 19.6234 31.9452 19.3271C32.0181 19.0309 32.0546 18.7165 32.0546 18.3838V18.2266C32.0546 17.8984 32.0181 17.5885 31.9452 17.2969C31.8768 17.0007 31.7675 16.7386 31.6171 16.5107C31.4712 16.2829 31.2844 16.1051 31.0565 15.9775C30.8332 15.8454 30.5666 15.7793 30.2567 15.7793C29.9468 15.7793 29.6779 15.8454 29.4501 15.9775C29.2268 16.1051 29.0422 16.2829 28.8964 16.5107C28.7505 16.7386 28.6434 17.0007 28.5751 17.2969C28.5067 17.5885 28.4725 17.8984 28.4725 18.2266ZM39.5331 20.2568V14.6035H41.1874V22H39.6288L39.5331 20.2568ZM39.7655 18.7188L40.3192 18.7051C40.3192 19.2018 40.2645 19.6598 40.1551 20.0791C40.0458 20.4938 39.8772 20.8561 39.6493 21.166C39.4214 21.4714 39.1298 21.7106 38.7743 21.8838C38.4188 22.0524 37.9927 22.1367 37.496 22.1367C37.1359 22.1367 36.8055 22.0843 36.5048 21.9795C36.204 21.8747 35.9442 21.7129 35.7255 21.4941C35.5113 21.2754 35.3449 20.9906 35.2264 20.6396C35.1079 20.2887 35.0487 19.8695 35.0487 19.3818V14.6035H36.6962V19.3955C36.6962 19.6644 36.7281 19.89 36.7919 20.0723C36.8557 20.25 36.9423 20.3936 37.0516 20.5029C37.161 20.6123 37.2886 20.6898 37.4344 20.7354C37.5803 20.7809 37.7352 20.8037 37.8993 20.8037C38.3687 20.8037 38.7378 20.7126 39.0067 20.5303C39.2801 20.3434 39.4738 20.0928 39.5878 19.7783C39.7063 19.4639 39.7655 19.1107 39.7655 18.7188ZM45.2821 20.6943L47.0936 14.6035H48.8026L46.2323 22H45.1659L45.2821 20.6943ZM43.8944 14.6035L45.7401 20.7217L45.829 22H44.7626L42.1786 14.6035H43.8944ZM52.9862 22.1367C52.4393 22.1367 51.9449 22.0479 51.5028 21.8701C51.0653 21.6878 50.6916 21.4349 50.3817 21.1113C50.0764 20.7878 49.8417 20.4072 49.6776 19.9697C49.5135 19.5322 49.4315 19.0605 49.4315 18.5547V18.2812C49.4315 17.7025 49.5158 17.1784 49.6844 16.709C49.8531 16.2396 50.0878 15.8385 50.3885 15.5059C50.6893 15.1686 51.0448 14.9111 51.455 14.7334C51.8651 14.5557 52.3094 14.4668 52.788 14.4668C53.3166 14.4668 53.7792 14.5557 54.1757 14.7334C54.5721 14.9111 54.9003 15.1618 55.16 15.4854C55.4244 15.8044 55.6203 16.1849 55.7479 16.627C55.8801 17.069 55.9462 17.5566 55.9462 18.0898V18.7939H50.2313V17.6113H54.3192V17.4814C54.3101 17.1852 54.2509 16.9072 54.1415 16.6475C54.0367 16.3877 53.8749 16.1781 53.6561 16.0186C53.4374 15.859 53.1457 15.7793 52.7811 15.7793C52.5077 15.7793 52.2639 15.8385 52.0497 15.957C51.84 16.071 51.6646 16.2373 51.5233 16.4561C51.382 16.6748 51.2727 16.9391 51.1952 17.249C51.1223 17.5544 51.0858 17.8984 51.0858 18.2812V18.5547C51.0858 18.8783 51.1291 19.179 51.2157 19.457C51.3068 19.7305 51.439 19.9697 51.6122 20.1748C51.7854 20.3799 51.995 20.5417 52.2411 20.6602C52.4872 20.7741 52.7675 20.8311 53.0819 20.8311C53.4784 20.8311 53.8316 20.7513 54.1415 20.5918C54.4514 20.4323 54.7203 20.2067 54.9481 19.915L55.8163 20.7559C55.6568 20.9883 55.4494 21.2116 55.1942 21.4258C54.939 21.6354 54.6268 21.8063 54.2577 21.9385C53.8931 22.0706 53.4693 22.1367 52.9862 22.1367ZM61.4012 20.5166V16.9893C61.4012 16.7249 61.3534 16.4971 61.2577 16.3057C61.162 16.1143 61.0162 15.9661 60.8202 15.8613C60.6288 15.7565 60.3872 15.7041 60.0956 15.7041C59.8267 15.7041 59.5943 15.7497 59.3983 15.8408C59.2024 15.932 59.0497 16.055 58.9403 16.21C58.8309 16.3649 58.7762 16.5404 58.7762 16.7363H57.1356C57.1356 16.4447 57.2063 16.1621 57.3475 15.8887C57.4888 15.6152 57.6939 15.3714 57.9628 15.1572C58.2316 14.943 58.5529 14.7744 58.9266 14.6514C59.3003 14.5283 59.7196 14.4668 60.1844 14.4668C60.7404 14.4668 61.2326 14.5602 61.661 14.7471C62.094 14.9339 62.4335 15.2165 62.6796 15.5947C62.9302 15.9684 63.0555 16.4378 63.0555 17.0029V20.291C63.0555 20.6283 63.0783 20.9313 63.1239 21.2002C63.174 21.4645 63.2447 21.6947 63.3358 21.8906V22H61.6473C61.5699 21.8223 61.5083 21.5967 61.4628 21.3232C61.4218 21.0452 61.4012 20.7764 61.4012 20.5166ZM61.6405 17.502L61.6542 18.5205H60.4716C60.1662 18.5205 59.8973 18.5501 59.6649 18.6094C59.4325 18.6641 59.2388 18.7461 59.0839 18.8555C58.9289 18.9648 58.8127 19.097 58.7352 19.252C58.6578 19.4069 58.619 19.5824 58.619 19.7783C58.619 19.9743 58.6646 20.1543 58.7557 20.3184C58.8469 20.4779 58.979 20.6032 59.1522 20.6943C59.33 20.7855 59.5441 20.8311 59.7948 20.8311C60.132 20.8311 60.426 20.7627 60.6766 20.626C60.9318 20.4847 61.1324 20.3138 61.2782 20.1133C61.424 19.9082 61.5015 19.7145 61.5106 19.5322L62.0438 20.2637C61.9891 20.4505 61.8957 20.651 61.7635 20.8652C61.6314 21.0794 61.4582 21.2845 61.244 21.4805C61.0344 21.6719 60.7815 21.8291 60.4852 21.9521C60.1936 22.0752 59.8563 22.1367 59.4735 22.1367C58.9904 22.1367 58.5598 22.041 58.1815 21.8496C57.8033 21.6536 57.507 21.3916 57.2928 21.0635C57.0787 20.7308 56.9716 20.3548 56.9716 19.9355C56.9716 19.5436 57.0445 19.1973 57.1903 18.8965C57.3407 18.5911 57.5594 18.3359 57.8466 18.1309C58.1382 17.9258 58.4937 17.7708 58.913 17.666C59.3322 17.5566 59.8108 17.502 60.3485 17.502H61.6405ZM69.2284 20.2568V14.6035H70.8827V22H69.3241L69.2284 20.2568ZM69.4608 18.7188L70.0145 18.7051C70.0145 19.2018 69.9598 19.6598 69.8505 20.0791C69.7411 20.4938 69.5725 20.8561 69.3446 21.166C69.1167 21.4714 68.8251 21.7106 68.4696 21.8838C68.1141 22.0524 67.688 22.1367 67.1913 22.1367C66.8313 22.1367 66.5009 22.0843 66.2001 21.9795C65.8993 21.8747 65.6395 21.7129 65.4208 21.4941C65.2066 21.2754 65.0402 20.9906 64.9218 20.6396C64.8033 20.2887 64.744 19.8695 64.744 19.3818V14.6035H66.3915V19.3955C66.3915 19.6644 66.4234 19.89 66.4872 20.0723C66.551 20.25 66.6376 20.3936 66.7469 20.5029C66.8563 20.6123 66.9839 20.6898 67.1298 20.7354C67.2756 20.7809 67.4305 20.8037 67.5946 20.8037C68.064 20.8037 68.4331 20.7126 68.702 20.5303C68.9755 20.3434 69.1691 20.0928 69.2831 19.7783C69.4016 19.4639 69.4608 19.1107 69.4608 18.7188Z" fill="#008766"/>
<defs>
<filter id="filter0_d_18759_122" x="0.352966" y="0" width="88" height="37" filterUnits="userSpaceOnUse" color-interpolation-filters="sRGB">
<feFlood flood-opacity="0" result="BackgroundImageFix"/>
<feColorMatrix in="SourceAlpha" type="matrix" values="0 0 0 0 0 0 0 0 0 0 0 0 0 0 0 0 0 0 127 0" result="hardAlpha"/>
<feOffset dy="2"/>
<feGaussianBlur stdDeviation="2"/>
<feColorMatrix type="matrix" values="0 0 0 0 0 0 0 0 0 0 0 0 0 0 0 0 0 0 0.15 0"/>
<feBlend mode="normal" in2="BackgroundImageFix" result="effect1_dropShadow_18759_122"/>
<feBlend mode="normal" in="SourceGraphic" in2="effect1_dropShadow_18759_122" result="shape"/>
</filter>
</defs>
</svg>
